<svg xmlns="http://www.w3.org/2000/svg" xmlns:xlink="http://www.w3.org/1999/xlink" viewBox="0 0 1921 1081"><defs><style>.a{fill:url(#a);}.b{mask:url(#b);}.c{fill:#77e8fe;stroke-miterlimit:10;stroke:url(#d);}.d{fill:#fff;}.e{fill:#00b3ff;}.f{filter:url(#c);}</style><radialGradient id="a" cx="-205.14" cy="-285.05" r="2426.86" gradientUnits="userSpaceOnUse"><stop offset="0" stop-color="#c0392b"/><stop offset="0.15" stop-color="#bb3a37"/><stop offset="0.43" stop-color="#af3d58"/><stop offset="0.8" stop-color="#9a418d"/><stop offset="1" stop-color="#8e44ad"/></radialGradient><filter id="c" filterUnits="userSpaceOnUse" color-interpolation-filters="sRGB"><feColorMatrix values="-1 0 0 0 1 0 -1 0 0 1 0 0 -1 0 1 0 0 0 1 0"/></filter><mask id="b" x="0" y="0" width="1921" height="1081" maskUnits="userSpaceOnUse"><g class="f"><g transform="translate(0.5 0.5)"><path d="M571.47,513.05l4-5.12,43.85-49.51h34.35l-55.55,60.29,55.73,74.19H620.25l-41.47-57.38-6.58,6.58v50.8H545.34V458.42H572.2v47.87Z"/><path d="M790.72,592.9H764.23V538.26H704.12V592.9h-26.5V458.42h26.5v54.26h60.11V458.42h26.49Z"/><path d="M908,470.57q13.51,12.15,13.52,33.16a55,55,0,0,1-4.66,22.57,39.31,39.31,0,0,1-15.16,17.26q-10.51,6.77-27.14,6.76h-19V592.9H829.09V458.42h40.74Q894.5,458.42,908,470.57Zm-21.56,50.61a19.83,19.83,0,0,0,6.58-7.95,21.7,21.7,0,0,0,2-8.77,25.54,25.54,0,0,0-4.2-13.79Q886.64,484,874.58,484h-19v40.56H874.4Q881.89,524.56,886.46,521.18Z"/><path d="M970.32,448.74V592.9H944.74V448.74Z"/><path d="M1086.16,513.05V592.9h-25.58V583q-11.5,12.06-26.67,12.06-17.73,0-28.78-10.6t-11.06-31.43q0-13.15,5.39-23.11a40,40,0,0,1,14.35-15.44A36.11,36.11,0,0,1,1033,509q10.59,0,16.81,3.2a34.42,34.42,0,0,1,11,9l1.65-8.22Zm-25.58,49.15V542.65a18.65,18.65,0,0,0-7.58-9.32,23,23,0,0,0-12.7-3.47,19.11,19.11,0,0,0-14.34,6.21q-5.94,6.21-5.94,15.72a22.88,22.88,0,0,0,2.92,11.41,21.66,21.66,0,0,0,7.77,8.14,19.92,19.92,0,0,0,10.5,2.92Q1054.54,574.26,1060.58,562.2Z"/><path d="M1198.71,513.05l-51.52,118.21h-24.67l19.18-42.57-36.9-75.64h28.68l21,47.14,21.2-47.14Z"/><path d="M1270.33,568.05l11.33,19a70,70,0,0,1-13.89,5.85,48.38,48.38,0,0,1-13.88,2.19q-14.25,0-24.58-5.39a36.45,36.45,0,0,1-15.62-15.17,46.2,46.2,0,0,1-5.3-22.38,40.14,40.14,0,0,1,6.12-21.56A44,44,0,0,1,1231.23,515a47.82,47.82,0,0,1,23.21-5.76q17.18,0,28.23,10.05T1297,548l-58.47,18.63q5.85,6.76,15.9,6.76Q1262.11,573.34,1270.33,568.05ZM1238.72,535q-5.12,5.85-5.11,15.71v1.64l35.08-11.87q-3.84-11.33-16.26-11.33Q1243.84,529.13,1238.72,535Z"/><path d="M1353.37,519.81a49.72,49.72,0,0,1,11.79-7.95q6-2.82,9.5-2.83l-1.28,25.58a20.46,20.46,0,0,0-3.11-.18,23.3,23.3,0,0,0-13.52,4,26.6,26.6,0,0,0-9,10.32,28.86,28.86,0,0,0-3.11,12.88V592.9H1319.3V513.05h23l2,18.27A39.67,39.67,0,0,1,1353.37,519.81Z"/></g></g></mask><linearGradient id="d" y1="540.5" x2="1921" y2="540.5" gradientUnits="userSpaceOnUse"><stop offset="0.25" stop-color="#fc5c7d"/><stop offset="0.71" stop-color="#6f81f7"/></linearGradient></defs><rect class="a" x="0.5" y="0.5" width="1920" height="1080"/><g class="b"><rect class="c" x="0.5" y="0.5" width="1920" height="1080"/></g><path class="d" d="M1092.07,662.4a10.64,10.64,0,0,1,4,4.19,13,13,0,0,1,1.44,6.22,11.91,11.91,0,0,1-1.55,6.11,10.62,10.62,0,0,1-4.27,4.08,12.78,12.78,0,0,1-6.08,1.44,10.62,10.62,0,0,1-4.59-1,9.39,9.39,0,0,1-3.52-2.81v13.93h-5V661.44h4.32l.43,3.74a13.46,13.46,0,0,1,4.08-3.1,11.48,11.48,0,0,1,5.15-1.17A10.79,10.79,0,0,1,1092.07,662.4Zm-3.6,17.05a7.67,7.67,0,0,0,2.85-2.72,7.27,7.27,0,0,0,1.07-3.87,7.93,7.93,0,0,0-1-4,7.38,7.38,0,0,0-2.69-2.77,7.24,7.24,0,0,0-3.79-1,7.57,7.57,0,0,0-4.83,1.57,7.44,7.44,0,0,0-2.64,4.24v3.68a6.64,6.64,0,0,0,2.43,4.19,7.27,7.27,0,0,0,4.72,1.62A7.84,7.84,0,0,0,1088.47,679.45Z" transform="translate(0.5 0.5)"/><path class="d" d="M1103.78,666.7a11.21,11.21,0,0,1,4.37-4.24,12.89,12.89,0,0,1,6.32-1.55,12.56,12.56,0,0,1,6.27,1.55,11.08,11.08,0,0,1,4.27,4.21,11.9,11.9,0,0,1,1.52,6,12.05,12.05,0,0,1-1.52,6,11,11,0,0,1-4.3,4.24,12.81,12.81,0,0,1-6.34,1.55,13.13,13.13,0,0,1-6.25-1.47,10.81,10.81,0,0,1-4.34-4.14,11.91,11.91,0,0,1-1.58-6.18A11.59,11.59,0,0,1,1103.78,666.7Zm4.37,9.84a7.13,7.13,0,0,0,2.56,2.77,7,7,0,0,0,8.72-1.17,7.71,7.71,0,0,0,2-5.44,7.81,7.81,0,0,0-2-5.47,6.66,6.66,0,0,0-5.12-2.21,6.56,6.56,0,0,0-3.63,1,7.44,7.44,0,0,0-2.53,2.8,8.39,8.39,0,0,0,0,7.68Z" transform="translate(0.5 0.5)"/><path class="d" d="M1163.18,661.82,1153,685.24l-7.1-15.15-6.45,15.15-10.24-23.42h4.9l5.93,13.39,4.1-9.6-1.76-3.79h4.32l6,13.71,5.6-13.71Z" transform="translate(0.5 0.5)"/><path class="d" d="M1183.71,678.25l2.3,3.68a15.49,15.49,0,0,1-3.82,1.84,13,13,0,0,1-4,.67,13.12,13.12,0,0,1-6.43-1.52,10.75,10.75,0,0,1-4.24-4.19,12.09,12.09,0,0,1-1.49-6,11.34,11.34,0,0,1,1.62-6,11.89,11.89,0,0,1,4.46-4.27,12.6,12.6,0,0,1,6.19-1.57,10.57,10.57,0,0,1,7.22,2.54,13,13,0,0,1,4,7.06l-17.5,6.14a6.9,6.9,0,0,0,2.59,2.58,7.23,7.23,0,0,0,3.71.94A9,9,0,0,0,1183.71,678.25ZM1172.94,667a7.7,7.7,0,0,0-2,5.44,9.38,9.38,0,0,0,.06,1.23l12.85-4.75a7.37,7.37,0,0,0-2.26-2.93,5.84,5.84,0,0,0-3.66-1.12A6.53,6.53,0,0,0,1172.94,667Z" transform="translate(0.5 0.5)"/><path class="d" d="M1202.94,663.84a12.41,12.41,0,0,1,3.34-2.13,9,9,0,0,1,3.09-.8l-.21,5a8.16,8.16,0,0,0-4.35,1,7.73,7.73,0,0,0-3,3,8,8,0,0,0-1.09,4V683.9h-5V661.82h4.42l.38,5.23A9.73,9.73,0,0,1,1202.94,663.84Z" transform="translate(0.5 0.5)"/><path class="d" d="M1230.55,678.25l2.29,3.68a15.25,15.25,0,0,1-3.81,1.84,13.42,13.42,0,0,1-10.4-.85,10.62,10.62,0,0,1-4.24-4.19,12.1,12.1,0,0,1-1.5-6,11.26,11.26,0,0,1,1.63-6,11.86,11.86,0,0,1,4.45-4.27,12.63,12.63,0,0,1,6.19-1.57,10.62,10.62,0,0,1,7.23,2.54,12.94,12.94,0,0,1,4,7.06l-17.49,6.14a6.94,6.94,0,0,0,2.58,2.58,7.26,7.26,0,0,0,3.71.94A9,9,0,0,0,1230.55,678.25ZM1219.77,667a7.74,7.74,0,0,0-2,5.44,12.16,12.16,0,0,0,0,1.23l12.86-4.75a7.39,7.39,0,0,0-2.27-2.93,5.81,5.81,0,0,0-3.65-1.12A6.55,6.55,0,0,0,1219.77,667Z" transform="translate(0.5 0.5)"/><path class="d" d="M1265.59,642.56V683.9h-5v-3.47a11.25,11.25,0,0,1-3.92,2.94,12.09,12.09,0,0,1-5.09,1.07,10.73,10.73,0,0,1-5.61-1.5,10.37,10.37,0,0,1-3.92-4.19,13.16,13.16,0,0,1-1.41-6.21,12.46,12.46,0,0,1,1.49-6.21,10.09,10.09,0,0,1,4.11-4,12.38,12.38,0,0,1,5.92-1.39,11.76,11.76,0,0,1,4.83,1,8.92,8.92,0,0,1,3.65,2.85V642.56Zm-7.6,36.06a7,7,0,0,0,2.59-4.16V670.3a7,7,0,0,0-2.72-3.92,7.87,7.87,0,0,0-4.75-1.52,7.41,7.41,0,0,0-6.45,3.71,8,8,0,0,0,0,7.81,7.46,7.46,0,0,0,2.72,2.77,7.14,7.14,0,0,0,3.73,1A7.74,7.74,0,0,0,1258,678.62Z" transform="translate(0.5 0.5)"/><path class="d" d="M1310.64,662.35a10.29,10.29,0,0,1,3.92,4.06,12.39,12.39,0,0,1,1.44,6.08,12.59,12.59,0,0,1-1.54,6.34,10.57,10.57,0,0,1-4.19,4.17,11.77,11.77,0,0,1-5.73,1.44,11.26,11.26,0,0,1-4.94-1.07,9.79,9.79,0,0,1-3.6-2.88v3.41h-5V642.56h5v22.19a9.5,9.5,0,0,1,3.81-2.8,13.57,13.57,0,0,1,5.37-1A10.66,10.66,0,0,1,1310.64,662.35ZM1308.83,678a8.14,8.14,0,0,0,1.12-9.36,7.47,7.47,0,0,0-2.69-2.75,7.34,7.34,0,0,0-3.79-1,8,8,0,0,0-4.78,1.47,6.78,6.78,0,0,0-2.69,3.86v4.48a7.21,7.21,0,0,0,2.67,4,7.69,7.69,0,0,0,4.8,1.55A7.12,7.12,0,0,0,1308.83,678Z" transform="translate(0.5 0.5)"/><path class="d" d="M1343.69,661.82l-14.24,32.7h-4.91l5.07-11.36-10.24-21.34h5.6l7.14,15.73,7-15.73Z" transform="translate(0.5 0.5)"/><path class="e" d="M1393.41,655.52q0,6.68-4.19,10.17t-11.07,3.49h-6.56V683.9H1363V642.13h15.52a16.22,16.22,0,0,1,10.75,3.5Q1393.41,649.13,1393.41,655.52Zm-8.7.22a4.59,4.59,0,0,0-2-4.14,9,9,0,0,0-5-1.3h-6.13v10.82h6.19a8.69,8.69,0,0,0,4.9-1.33A4.52,4.52,0,0,0,1384.71,655.74Z" transform="translate(0.5 0.5)"/><path class="e" d="M1407.22,640.43V683.9h-8.37V640.43Z" transform="translate(0.5 0.5)"/><path class="e" d="M1423.76,680.86l-12-25.44h9.18l7.1,16.27,6.34-16.27H1443l-17.28,42.51h-8.91Z" transform="translate(0.5 0.5)"/><path class="e" d="M1465.1,663.58a14.75,14.75,0,0,0-2.67-.21,6.23,6.23,0,0,0-4.93,2.08,8.69,8.69,0,0,0-1.84,6V683.9h-8.16V655.42h7.89v4.16h.11a7.5,7.5,0,0,1,7.36-4.48,8.24,8.24,0,0,1,2.24.32Z" transform="translate(0.5 0.5)"/></svg>