<?xml version="1.0" encoding="utf-8"?>
<!-- Generator: Adobe Illustrator 24.1.2, SVG Export Plug-In . SVG Version: 6.00 Build 0)  -->
<svg version="1.1" xmlns="http://www.w3.org/2000/svg" xmlns:xlink="http://www.w3.org/1999/xlink" x="0px" y="0px"
	 viewBox="0 0 1920 1080" style="enable-background:new 0 0 1920 1080;" xml:space="preserve">
<style type="text/css">
	.st0{fill:url(#SVGID_1_);}
	.st1{display:none;}
	.st2{display:inline;fill:#FFFFFF;}
	.st3{display:inline;}
	.st4{display:inline;filter:url(#Adobe_OpacityMaskFilter);}
	.st5{display:inline;mask:url(#SVGID_2_);fill:#77E8FE;stroke:url(#SVGID_3_);stroke-miterlimit:10;}
	.st6{fill:#FFFFFF;}
	.st7{fill:#00B3FF;}
</style>
<g id="Layer_1">
	<radialGradient id="SVGID_1_" cx="-205.6383" cy="-285.5532" r="2426.8569" gradientUnits="userSpaceOnUse">
		<stop  offset="0" style="stop-color:#C0392B"/>
		<stop  offset="0.1519" style="stop-color:#BB3A37"/>
		<stop  offset="0.4295" style="stop-color:#AF3D58"/>
		<stop  offset="0.799" style="stop-color:#9A418D"/>
		<stop  offset="1" style="stop-color:#8E44AD"/>
	</radialGradient>
	<rect class="st0" width="1920" height="1080"/>
</g>
<g id="Layer_4" class="st1">
	<g>
		<path class="st2" d="M640.76,437.26l4.02-5.12l43.85-49.51h34.35l-55.54,60.29l55.73,74.18h-33.62l-41.48-57.37l-6.58,6.58v50.79
			h-26.86V382.63h26.86v47.87L640.76,437.26z"/>
		<path class="st2" d="M860.02,517.1h-26.49v-54.63h-60.11v54.63h-26.49V382.63h26.49v54.27h60.11v-54.27h26.49V517.1z"/>
		<path class="st2" d="M977.31,394.78c9.01,8.1,13.52,19.16,13.52,33.16c0,8.04-1.55,15.56-4.66,22.56
			c-3.11,7.01-8.16,12.76-15.17,17.27c-7.01,4.51-16.05,6.76-27.13,6.76h-19v42.57h-26.49V382.63h40.74
			C955.57,382.63,968.3,386.68,977.31,394.78z M955.75,445.39c3.04-2.25,5.24-4.9,6.58-7.95c1.34-3.04,2.01-5.97,2.01-8.77
			c0-4.75-1.4-9.35-4.2-13.79c-2.8-4.44-8.22-6.67-16.26-6.67h-19v40.56h18.82C948.69,448.77,952.71,447.64,955.75,445.39z"/>
		<path class="st2" d="M1039.62,372.94V517.1h-25.58V372.94H1039.62z"/>
		<path class="st2" d="M1155.45,437.26v79.84h-25.58v-9.87c-7.67,8.04-16.57,12.06-26.68,12.06c-11.82,0-21.41-3.53-28.78-10.6
			c-7.37-7.06-11.05-17.54-11.05-31.43c0-8.77,1.79-16.47,5.39-23.11c3.59-6.64,8.37-11.79,14.34-15.44
			c5.97-3.65,12.36-5.48,19.18-5.48c7.06,0,12.67,1.07,16.81,3.2c4.14,2.13,7.79,5.15,10.96,9.04l1.64-8.22H1155.45z
			 M1129.88,486.41v-19.55c-1.46-3.9-3.99-7-7.58-9.32c-3.59-2.31-7.83-3.47-12.7-3.47c-5.6,0-10.39,2.07-14.34,6.21
			c-3.96,4.14-5.94,9.38-5.94,15.71c0,4.14,0.97,7.95,2.92,11.42c1.95,3.47,4.54,6.18,7.76,8.13c3.23,1.95,6.73,2.92,10.51,2.92
			C1119.4,498.47,1125.86,494.45,1129.88,486.41z"/>
		<path class="st2" d="M1268,437.26l-51.53,118.21h-24.67L1211,512.9l-36.91-75.64h28.69l21.01,47.14l21.19-47.14H1268z"/>
		<path class="st2" d="M1339.63,492.25l11.33,19c-4.38,2.44-9.02,4.38-13.89,5.85c-4.87,1.46-9.5,2.19-13.89,2.19
			c-9.5,0-17.69-1.8-24.58-5.39c-6.88-3.59-12.09-8.65-15.62-15.17c-3.53-6.52-5.3-13.98-5.3-22.38c0-7.79,2.04-14.98,6.12-21.56
			c4.08-6.58,9.65-11.78,16.72-15.62c7.06-3.84,14.8-5.76,23.2-5.76c11.45,0,20.86,3.35,28.23,10.05
			c7.37,6.7,12.15,16.26,14.34,28.69l-58.47,18.64c3.9,4.51,9.2,6.76,15.9,6.76C1328.85,497.55,1334.15,495.79,1339.63,492.25z
			 M1308.02,459.18c-3.41,3.9-5.12,9.14-5.12,15.71v1.64l35.08-11.88c-2.56-7.55-7.98-11.33-16.26-11.33
			C1316,453.34,1311.43,455.29,1308.02,459.18z"/>
		<path class="st2" d="M1422.67,444.02c3.84-3.41,7.77-6.06,11.79-7.95c4.02-1.89,7.19-2.83,9.5-2.83l-1.28,25.58
			c-0.73-0.12-1.77-0.18-3.11-0.18c-5.12,0-9.62,1.34-13.52,4.02c-3.9,2.68-6.88,6.12-8.95,10.32c-2.07,4.2-3.11,8.5-3.11,12.88
			v31.24h-25.4v-79.84h23.02l2.01,18.27C1415.82,451.27,1418.83,447.43,1422.67,444.02z"/>
	</g>
	<g>
		<path class="st3" d="M640.76,437.26l4.02-5.12l43.85-49.51h34.35l-55.54,60.29l55.73,74.18h-33.62l-41.48-57.37l-6.58,6.58v50.79
			h-26.86V382.63h26.86v47.87L640.76,437.26z"/>
		<path class="st3" d="M860.02,517.1h-26.49v-54.63h-60.11v54.63h-26.49V382.63h26.49v54.27h60.11v-54.27h26.49V517.1z"/>
		<path class="st3" d="M977.31,394.78c9.01,8.1,13.52,19.16,13.52,33.16c0,8.04-1.55,15.56-4.66,22.56
			c-3.11,7.01-8.16,12.76-15.17,17.27c-7.01,4.51-16.05,6.76-27.13,6.76h-19v42.57h-26.49V382.63h40.74
			C955.57,382.63,968.3,386.68,977.31,394.78z M955.75,445.39c3.04-2.25,5.24-4.9,6.58-7.95c1.34-3.04,2.01-5.97,2.01-8.77
			c0-4.75-1.4-9.35-4.2-13.79c-2.8-4.44-8.22-6.67-16.26-6.67h-19v40.56h18.82C948.69,448.77,952.71,447.64,955.75,445.39z"/>
		<path class="st3" d="M1039.62,372.94V517.1h-25.58V372.94H1039.62z"/>
		<path class="st3" d="M1155.45,437.26v79.84h-25.58v-9.87c-7.67,8.04-16.57,12.06-26.68,12.06c-11.82,0-21.41-3.53-28.78-10.6
			c-7.37-7.06-11.05-17.54-11.05-31.43c0-8.77,1.79-16.47,5.39-23.11c3.59-6.64,8.37-11.79,14.34-15.44
			c5.97-3.65,12.36-5.48,19.18-5.48c7.06,0,12.67,1.07,16.81,3.2c4.14,2.13,7.79,5.15,10.96,9.04l1.64-8.22H1155.45z
			 M1129.88,486.41v-19.55c-1.46-3.9-3.99-7-7.58-9.32c-3.59-2.31-7.83-3.47-12.7-3.47c-5.6,0-10.39,2.07-14.34,6.21
			c-3.96,4.14-5.94,9.38-5.94,15.71c0,4.14,0.97,7.95,2.92,11.42c1.95,3.47,4.54,6.18,7.76,8.13c3.23,1.95,6.73,2.92,10.51,2.92
			C1119.4,498.47,1125.86,494.45,1129.88,486.41z"/>
		<path class="st3" d="M1268,437.26l-51.53,118.21h-24.67L1211,512.9l-36.91-75.64h28.69l21.01,47.14l21.19-47.14H1268z"/>
		<path class="st3" d="M1339.63,492.25l11.33,19c-4.38,2.44-9.02,4.38-13.89,5.85c-4.87,1.46-9.5,2.19-13.89,2.19
			c-9.5,0-17.69-1.8-24.58-5.39c-6.88-3.59-12.09-8.65-15.62-15.17c-3.53-6.52-5.3-13.98-5.3-22.38c0-7.79,2.04-14.98,6.12-21.56
			c4.08-6.58,9.65-11.78,16.72-15.62c7.06-3.84,14.8-5.76,23.2-5.76c11.45,0,20.86,3.35,28.23,10.05
			c7.37,6.7,12.15,16.26,14.34,28.69l-58.47,18.64c3.9,4.51,9.2,6.76,15.9,6.76C1328.85,497.55,1334.14,495.79,1339.63,492.25z
			 M1308.02,459.18c-3.41,3.9-5.12,9.14-5.12,15.71v1.64l35.08-11.88c-2.56-7.55-7.98-11.33-16.26-11.33
			C1315.99,453.34,1311.43,455.29,1308.02,459.18z"/>
		<path class="st3" d="M1422.67,444.02c3.84-3.41,7.77-6.06,11.79-7.95c4.02-1.89,7.19-2.83,9.5-2.83l-1.28,25.58
			c-0.73-0.12-1.77-0.18-3.11-0.18c-5.12,0-9.62,1.34-13.52,4.02c-3.9,2.68-6.88,6.12-8.95,10.32c-2.07,4.2-3.11,8.5-3.11,12.88
			v31.24h-25.4v-79.84h23.02l2.01,18.27C1415.82,451.27,1418.83,447.43,1422.67,444.02z"/>
	</g>
</g>
<g id="Layer_2" class="st1">
	<defs>
		<filter id="Adobe_OpacityMaskFilter" filterUnits="userSpaceOnUse" x="-0.5" y="-0.5" width="1921" height="1081">
			
				<feColorMatrix  type="matrix" values="-1 0 0 0 1  0 -1 0 0 1  0 0 -1 0 1  0 0 0 1 0" color-interpolation-filters="sRGB" result="source"/>
		</filter>
	</defs>
	<mask maskUnits="userSpaceOnUse" x="-0.5" y="-0.5" width="1921" height="1081" id="SVGID_2_" class="st3">
		<g style="filter:url(#Adobe_OpacityMaskFilter);">
			<g>
				<path d="M571.47,513.05l4.02-5.12l43.85-49.51h34.35l-55.54,60.29l55.73,74.18h-33.62l-41.48-57.37l-6.58,6.58v50.79h-26.86
					V458.42h26.86v47.87L571.47,513.05z"/>
				<path d="M790.72,592.9h-26.49v-54.63h-60.11v54.63h-26.49V458.42h26.49v54.27h60.11v-54.27h26.49V592.9z"/>
				<path d="M908.02,470.57c9.01,8.1,13.52,19.16,13.52,33.16c0,8.04-1.55,15.56-4.66,22.56c-3.11,7.01-8.16,12.76-15.17,17.27
					c-7.01,4.51-16.05,6.76-27.13,6.76h-19v42.57h-26.49V458.42h40.74C886.28,458.42,899.01,462.47,908.02,470.57z M886.46,521.18
					c3.04-2.25,5.24-4.9,6.58-7.95c1.34-3.04,2.01-5.97,2.01-8.77c0-4.75-1.4-9.35-4.2-13.79c-2.8-4.44-8.22-6.67-16.26-6.67h-19
					v40.56h18.82C879.39,524.56,883.41,523.44,886.46,521.18z"/>
				<path d="M970.32,448.74V592.9h-25.58V448.74H970.32z"/>
				<path d="M1086.16,513.05v79.84h-25.58v-9.87c-7.67,8.04-16.57,12.06-26.68,12.06c-11.82,0-21.41-3.53-28.78-10.6
					c-7.37-7.06-11.05-17.54-11.05-31.43c0-8.77,1.79-16.47,5.39-23.11c3.59-6.64,8.37-11.79,14.34-15.44
					c5.97-3.65,12.36-5.48,19.18-5.48c7.06,0,12.67,1.07,16.81,3.2c4.14,2.13,7.79,5.15,10.96,9.04l1.64-8.22H1086.16z
					 M1060.58,562.2v-19.55c-1.46-3.9-3.99-7-7.58-9.32c-3.59-2.31-7.83-3.47-12.7-3.47c-5.6,0-10.39,2.07-14.34,6.21
					c-3.96,4.14-5.94,9.38-5.94,15.71c0,4.14,0.97,7.95,2.92,11.42c1.95,3.47,4.54,6.18,7.76,8.13c3.23,1.95,6.73,2.92,10.51,2.92
					C1050.1,574.26,1056.56,570.24,1060.58,562.2z"/>
				<path d="M1198.71,513.05l-51.53,118.21h-24.67l19.18-42.57l-36.91-75.64h28.69l21.01,47.14l21.19-47.14H1198.71z"/>
				<path d="M1270.33,568.05l11.33,19c-4.38,2.44-9.02,4.38-13.89,5.85c-4.87,1.46-9.5,2.19-13.89,2.19c-9.5,0-17.69-1.8-24.58-5.39
					c-6.88-3.59-12.09-8.65-15.62-15.17c-3.53-6.52-5.3-13.98-5.3-22.38c0-7.79,2.04-14.98,6.12-21.56
					c4.08-6.58,9.65-11.78,16.72-15.62c7.06-3.84,14.8-5.76,23.2-5.76c11.45,0,20.86,3.35,28.23,10.05
					c7.37,6.7,12.15,16.26,14.34,28.69l-58.47,18.64c3.9,4.51,9.2,6.76,15.9,6.76C1259.55,573.34,1264.85,571.58,1270.33,568.05z
					 M1238.72,534.98c-3.41,3.9-5.12,9.14-5.12,15.71v1.64l35.08-11.88c-2.56-7.55-7.98-11.33-16.26-11.33
					C1246.7,529.13,1242.13,531.08,1238.72,534.98z"/>
				<path d="M1353.37,519.81c3.84-3.41,7.77-6.06,11.79-7.95c4.02-1.89,7.19-2.83,9.5-2.83l-1.28,25.58
					c-0.73-0.12-1.77-0.18-3.11-0.18c-5.12,0-9.62,1.34-13.52,4.02c-3.9,2.68-6.88,6.12-8.95,10.32c-2.07,4.2-3.11,8.5-3.11,12.88
					v31.24h-25.4v-79.84h23.02l2.01,18.27C1346.52,527.06,1349.54,523.22,1353.37,519.81z"/>
			</g>
		</g>
	</mask>
	<linearGradient id="SVGID_3_" gradientUnits="userSpaceOnUse" x1="-0.5" y1="540" x2="1920.5" y2="540">
		<stop  offset="0.2479" style="stop-color:#FC5C7D"/>
		<stop  offset="0.7128" style="stop-color:#6F81F7"/>
	</linearGradient>
	<rect class="st5" width="1920" height="1080"/>
</g>
<g id="Layer_3" class="st1">
	<g class="st3">
		<path class="st6" d="M1092.07,662.4c1.67,1,2.99,2.39,3.95,4.19c0.96,1.8,1.44,3.87,1.44,6.21c0,2.31-0.52,4.35-1.55,6.11
			c-1.03,1.76-2.45,3.12-4.27,4.08c-1.81,0.96-3.84,1.44-6.08,1.44c-1.6,0-3.13-0.35-4.59-1.04c-1.46-0.69-2.63-1.63-3.52-2.8v13.92
			h-4.96v-33.07h4.32l0.43,3.73c1.14-1.28,2.5-2.31,4.08-3.09c1.58-0.78,3.3-1.17,5.15-1.17
			C1088.53,660.91,1090.4,661.41,1092.07,662.4z M1088.47,679.45c1.19-0.66,2.14-1.56,2.85-2.72c0.71-1.16,1.07-2.44,1.07-3.87
			c0-1.46-0.33-2.77-0.99-3.95c-0.66-1.17-1.56-2.1-2.69-2.77c-1.14-0.67-2.4-1.01-3.79-1.01c-1.89,0-3.49,0.53-4.83,1.57
			c-1.33,1.05-2.21,2.46-2.64,4.24v3.68c0.28,1.71,1.09,3.1,2.43,4.19c1.33,1.09,2.91,1.63,4.72,1.63
			C1085.99,680.43,1087.28,680.11,1088.47,679.45z"/>
		<path class="st6" d="M1103.78,666.7c1.05-1.8,2.51-3.21,4.37-4.24c1.87-1.03,3.97-1.55,6.32-1.55c2.35,0,4.44,0.52,6.27,1.55
			c1.83,1.03,3.25,2.44,4.27,4.21c1.01,1.78,1.52,3.77,1.52,5.97c0,2.21-0.51,4.21-1.52,6c-1.01,1.8-2.45,3.21-4.29,4.24
			c-1.85,1.03-3.97,1.55-6.35,1.55c-2.31,0-4.39-0.49-6.24-1.47s-3.3-2.36-4.35-4.13c-1.05-1.78-1.57-3.84-1.57-6.19
			C1102.2,670.48,1102.73,668.5,1103.78,666.7z M1108.15,676.54c0.62,1.17,1.47,2.1,2.56,2.77c1.08,0.68,2.28,1.01,3.6,1.01
			c2.06,0,3.77-0.73,5.12-2.19c1.35-1.46,2.03-3.27,2.03-5.44c0-2.17-0.68-3.99-2.03-5.47c-1.35-1.48-3.06-2.21-5.12-2.21
			c-1.35,0-2.56,0.35-3.63,1.04c-1.07,0.69-1.91,1.63-2.53,2.8c-0.62,1.17-0.93,2.45-0.93,3.84S1107.53,675.37,1108.15,676.54z"/>
		<path class="st6" d="M1163.18,661.82l-10.19,23.42l-7.09-15.15l-6.45,15.15l-10.24-23.42h4.91l5.92,13.39l4.11-9.6l-1.76-3.79
			h4.32l5.97,13.71l5.6-13.71H1163.18z"/>
		<path class="st6" d="M1183.71,678.25l2.29,3.68c-1.17,0.78-2.45,1.4-3.81,1.84c-1.37,0.44-2.69,0.67-3.97,0.67
			c-2.45,0-4.6-0.51-6.43-1.52c-1.83-1.01-3.25-2.41-4.24-4.19c-1-1.78-1.49-3.79-1.49-6.03c0-2.17,0.54-4.15,1.63-5.95
			c1.08-1.79,2.57-3.22,4.45-4.27c1.88-1.05,3.95-1.57,6.19-1.57c2.88,0,5.29,0.84,7.23,2.53s3.26,4.04,3.97,7.07l-17.5,6.13
			c0.64,1.1,1.5,1.97,2.59,2.59c1.08,0.62,2.32,0.93,3.71,0.93C1180.17,680.17,1181.97,679.53,1183.71,678.25z M1172.94,666.99
			c-1.32,1.42-1.97,3.24-1.97,5.44c0,0.53,0.02,0.94,0.05,1.23l12.86-4.75c-0.53-1.21-1.29-2.19-2.27-2.93
			c-0.98-0.75-2.2-1.12-3.65-1.12C1175.93,664.86,1174.25,665.57,1172.94,666.99z"/>
		<path class="st6" d="M1202.94,663.84c1.05-0.92,2.16-1.63,3.33-2.13c1.17-0.5,2.21-0.76,3.09-0.8l-0.21,4.96
			c-1.6-0.07-3.05,0.25-4.35,0.96c-1.3,0.71-2.31,1.7-3.04,2.96c-0.73,1.26-1.09,2.61-1.09,4.03v10.08h-4.96v-22.08h4.43l0.37,5.23
			C1201.08,665.84,1201.89,664.77,1202.94,663.84z"/>
		<path class="st6" d="M1230.55,678.25l2.29,3.68c-1.17,0.78-2.45,1.4-3.81,1.84c-1.37,0.44-2.69,0.67-3.97,0.67
			c-2.45,0-4.6-0.51-6.43-1.52c-1.83-1.01-3.25-2.41-4.24-4.19c-1-1.78-1.49-3.79-1.49-6.03c0-2.17,0.54-4.15,1.63-5.95
			c1.08-1.79,2.57-3.22,4.45-4.27c1.88-1.05,3.95-1.57,6.19-1.57c2.88,0,5.29,0.84,7.23,2.53s3.26,4.04,3.97,7.07l-17.5,6.13
			c0.64,1.1,1.5,1.97,2.59,2.59c1.08,0.62,2.32,0.93,3.71,0.93C1227.01,680.17,1228.81,679.53,1230.55,678.25z M1219.77,666.99
			c-1.32,1.42-1.97,3.24-1.97,5.44c0,0.53,0.02,0.94,0.05,1.23l12.86-4.75c-0.53-1.21-1.29-2.19-2.27-2.93
			c-0.98-0.75-2.2-1.12-3.65-1.12C1222.76,664.86,1221.09,665.57,1219.77,666.99z"/>
		<path class="st6" d="M1265.59,642.56v41.34h-5.01v-3.47c-1.07,1.25-2.37,2.22-3.92,2.93s-3.25,1.07-5.09,1.07
			c-2.06,0-3.93-0.5-5.6-1.49c-1.67-1-2.98-2.39-3.92-4.19c-0.94-1.8-1.41-3.87-1.41-6.21c0-2.38,0.5-4.45,1.49-6.21
			c1-1.76,2.36-3.1,4.11-4.03c1.74-0.92,3.72-1.39,5.92-1.39c1.67,0,3.28,0.35,4.83,1.04c1.55,0.69,2.76,1.65,3.65,2.85v-22.24
			H1265.59z M1257.99,678.62c1.33-1.03,2.2-2.42,2.59-4.16v-4.16c-0.43-1.6-1.33-2.91-2.72-3.92s-2.97-1.52-4.75-1.52
			c-1.35,0-2.6,0.33-3.73,0.99c-1.14,0.66-2.05,1.56-2.72,2.72c-0.68,1.16-1.01,2.46-1.01,3.92c0,1.42,0.34,2.72,1.01,3.89
			c0.67,1.17,1.58,2.1,2.72,2.77c1.14,0.68,2.38,1.01,3.73,1.01C1255.03,680.17,1256.66,679.65,1257.99,678.62z"/>
		<path class="st6" d="M1310.64,662.35c1.65,0.96,2.96,2.31,3.92,4.05c0.96,1.74,1.44,3.77,1.44,6.08c0,2.42-0.52,4.53-1.55,6.35
			c-1.03,1.81-2.43,3.2-4.19,4.16c-1.76,0.96-3.67,1.44-5.73,1.44c-1.81,0-3.46-0.36-4.93-1.07c-1.48-0.71-2.68-1.67-3.6-2.88v3.41
			h-4.96v-41.34h4.96v22.19c0.92-1.17,2.2-2.11,3.81-2.8s3.41-1.04,5.36-1.04C1307.17,660.91,1308.99,661.39,1310.64,662.35z
			 M1308.83,677.98c1.4-1.46,2.11-3.29,2.11-5.5c0-1.42-0.33-2.71-0.99-3.87c-0.66-1.16-1.56-2.07-2.69-2.75
			c-1.14-0.67-2.4-1.01-3.79-1.01c-1.81,0-3.41,0.49-4.77,1.47c-1.37,0.98-2.27,2.27-2.69,3.87v4.48c0.43,1.6,1.32,2.92,2.67,3.95
			c1.35,1.03,2.95,1.55,4.8,1.55C1305.64,680.17,1307.42,679.44,1308.83,677.98z"/>
		<path class="st6" d="M1343.69,661.82l-14.24,32.7h-4.91l5.07-11.36l-10.24-21.34h5.6l7.15,15.74l6.99-15.74H1343.69z"/>
		<path class="st7" d="M1360.06,648.38c2.24-0.37,5.17-0.69,8.91-0.69c4.59,0,7.95,1.07,10.08,2.99c1.97,1.71,3.15,4.32,3.15,7.52
			c0,3.25-0.96,5.81-2.77,7.68c-2.45,2.61-6.45,3.95-10.99,3.95c-1.39,0-2.67-0.05-3.73-0.32v14.4h-4.64V648.38z M1364.71,665.71
			c1.01,0.27,2.29,0.37,3.84,0.37c5.6,0,9.02-2.72,9.02-7.68c0-4.75-3.36-7.04-8.48-7.04c-2.03,0-3.57,0.16-4.37,0.37V665.71z"/>
		<path class="st7" d="M1388.02,646.03h4.69v37.88h-4.69V646.03z"/>
		<path class="st7" d="M1402.31,658.08l5.65,15.26c0.59,1.71,1.23,3.73,1.65,5.28h0.11c0.48-1.55,1.01-3.52,1.65-5.39l5.12-15.15
			h4.96l-7.04,18.4c-3.36,8.86-5.66,13.39-8.86,16.16c-2.29,2.03-4.59,2.83-5.76,3.04l-1.17-3.95c1.17-0.37,2.72-1.12,4.11-2.29
			c1.28-1.01,2.88-2.83,3.95-5.23c0.21-0.48,0.37-0.85,0.37-1.12s-0.11-0.64-0.32-1.23l-9.55-23.79H1402.31z"/>
		<path class="st7" d="M1425.73,666.14c0-3.04-0.05-5.65-0.21-8.05h4.11l0.16,5.07h0.21c1.17-3.47,4-5.65,7.15-5.65
			c0.53,0,0.91,0.05,1.33,0.16v4.43c-0.48-0.11-0.96-0.16-1.6-0.16c-3.31,0-5.65,2.51-6.29,6.03c-0.11,0.64-0.21,1.39-0.21,2.19
			v13.76h-4.64V666.14z"/>
	</g>
</g>
<g id="Layer_5">
	<g>
		<path d="M728.1,486.45h33c14.1,0,25.7,2.73,34.8,8.17c9.1,5.45,15.72,12.5,19.88,21.15c4.15,8.65,6.23,17.93,6.23,27.83
			c0,10.6-2.5,19.95-7.5,28.05c-5,8.1-11.73,14.33-20.17,18.68c-8.45,4.35-17.73,6.52-27.83,6.52h-38.4V486.45z M762.75,575.85
			c11.3,0,20.25-2.9,26.85-8.7c6.6-5.8,9.9-14.15,9.9-25.05c0-8.8-1.83-15.8-5.48-21c-3.65-5.2-7.9-8.8-12.75-10.8
			c-4.85-2-9.43-3-13.72-3h-17.7v68.55H762.75z"/>
		<path d="M919.05,486.45v21H865.5V531h47.4v21h-47.4v23.85h55.65v21h-77.4v-110.4H919.05z"/>
		<path d="M1057.35,481.95v114.9h-21.75V544.2l-36,51.15h-0.3l-34.65-47.85v49.35h-21v-114.9h0.15l55.95,79.35l57.3-79.35H1057.35z"
			/>
		<path d="M1086.67,513.75c5.05-8.7,11.9-15.62,20.55-20.77c8.65-5.15,18.02-7.73,28.13-7.73c10.1,0,19.47,2.58,28.13,7.73
			c8.65,5.15,15.55,12.08,20.7,20.77c5.15,8.7,7.72,18.05,7.72,28.05c0,10.2-2.58,19.6-7.72,28.2c-5.15,8.6-12.05,15.43-20.7,20.48
			c-8.65,5.05-18.03,7.58-28.13,7.58c-10.2,0-19.6-2.52-28.2-7.58c-8.6-5.05-15.43-11.87-20.47-20.48c-5.05-8.6-7.58-18-7.58-28.2
			C1079.1,531.8,1081.62,522.45,1086.67,513.75z M1106.17,559.5c3.05,5.4,7.2,9.68,12.45,12.83s11.07,4.73,17.47,4.73
			c6.2,0,11.85-1.58,16.95-4.73c5.1-3.15,9.1-7.4,12-12.75c2.9-5.35,4.35-11.27,4.35-17.77c0-6.6-1.5-12.6-4.5-18
			c-3-5.4-7.08-9.68-12.22-12.83c-5.15-3.15-10.88-4.73-17.17-4.73c-6.3,0-12.03,1.58-17.18,4.73c-5.15,3.15-9.22,7.42-12.22,12.83
			c-3,5.4-4.5,11.4-4.5,18C1101.6,548.2,1103.12,554.1,1106.17,559.5z"/>
	</g>
	<g>
	</g>
	<g>
	</g>
	<g>
	</g>
	<g>
	</g>
	<g>
	</g>
	<g>
	</g>
	<g>
	</g>
	<g>
	</g>
	<g>
	</g>
	<g>
	</g>
	<g>
	</g>
</g>
</svg>
